<svg xmlns:rdf="http://www.w3.org/1999/02/22-rdf-syntax-ns#" xmlns="http://www.w3.org/2000/svg" height="114.42mm" width="122.85mm" version="1.1" xmlns:cc="http://creativecommons.org/ns#" xmlns:xlink="http://www.w3.org/1999/xlink" viewBox="0 0 435.28519 405.43192" xmlns:dc="http://purl.org/dc/elements/1.1/">
<defs>
<radialGradient id="radialGradient4270" gradientUnits="userSpaceOnUse" cy="409.17" cx="414.29" gradientTransform="matrix(1 0 0 .57082 0 192.79)" r="217.27">
<stop style="stop-color:#fff" offset="0"/>
<stop style="stop-color:#cdcdcd" offset="1"/>
</radialGradient>
<radialGradient id="radialGradient4278" gradientUnits="userSpaceOnUse" cy="488.14" cx="364.29" gradientTransform="matrix(1.3822 .033119 -.015071 0.629 -131.87 244.48)" r="217.64">
<stop style="stop-color:#93bfff" offset="0"/>
<stop style="stop-color:#0a6eff" offset="1"/>
</radialGradient>
</defs>
<g transform="translate(-148.07 -325.19)">
<g transform="matrix(.88922 -.45748 .45748 .88922 -145.18 176.1)">
<g transform="matrix(.99952 .031002 -.031002 .99952 33.307 -9.1476)">
<rect id="button" style="stroke:#000;stroke-width:.74844;fill:#fff" height="12.373" width="41.668" y="339.07" x="255.44"/>
<rect id="button-led" style="opacity:0.818;stroke:#000;stroke-width:.61387;fill:none" height="21.599" width="57.965" y="351.12" x="247.29"/>
</g>
</g>
</g>
<g transform="translate(-148.07 -325.19)">
<path style="opacity:0.671;fill-rule:evenodd;stroke:#000;stroke-width:1px;fill:url(#radialGradient4278)" d="m582.48 528.04a217.34 47.169 0 0 1 -0.51563 2.2363 217.34 47.169 0 0 1 -3.2461 4.6621 217.34 47.169 0 0 1 -5.375 4.5684 217.34 47.169 0 0 1 -7.4492 4.4277 217.34 47.169 0 0 1 -9.4492 4.2461 217.34 47.169 0 0 1 -0.002 0 217.34 47.169 0 0 1 -11.355 4.0195 217.34 47.169 0 0 1 -13.146 3.7539 217.34 47.169 0 0 1 -14.809 3.4492 217.34 47.169 0 0 1 -16.322 3.1113 217.34 47.169 0 0 1 -17.668 2.7442 217.34 47.169 0 0 1 -0.002 0 217.34 47.169 0 0 1 -18.846 2.3457 217.34 47.169 0 0 1 -19.83 1.9258 217.34 47.169 0 0 1 -20.615 1.4863 217.34 47.169 0 0 1 -21.197 1.0332 217.34 47.169 0 0 1 -0.002 0 217.34 47.169 0 0 1 -21.566 0.56836 217.34 47.169 0 0 1 -15.373 0.11719 217.34 47.169 0 0 1 -21.697 -0.23438 217.34 47.169 0 0 1 -21.48 -0.70507 217.34 47.169 0 0 1 -0.002 0 217.34 47.169 0 0 1 -21.049 -1.166 217.34 47.169 0 0 1 -20.406 -1.6172 217.34 47.169 0 0 1 -0.002 0 217.34 47.169 0 0 1 -19.562 -2.0508 217.34 47.169 0 0 1 -18.52 -2.4648 217.34 47.169 0 0 1 -17.295 -2.8535 217.34 47.169 0 0 1 -15.896 -3.2129 217.34 47.169 0 0 1 -14.336 -3.543 217.34 47.169 0 0 1 -0.002 0 217.34 47.169 0 0 1 -12.635 -3.8359 217.34 47.169 0 0 1 -0.002 0 217.34 47.169 0 0 1 -10.811 -4.0898 217.34 47.169 0 0 1 -8.873 -4.3027 217.34 47.169 0 0 1 -6.8516 -4.4746 217.34 47.169 0 0 1 -4.7578 -4.5996 217.34 47.169 0 0 1 0 -0.002 217.34 47.169 0 0 1 -2.5898 -4.6309c-0.13555 3.0406-0.36753 6.0701-0.375 9.123 0.0603 80.605 44.765 154.54 116.12 192.05h202.09c71.337-37.511 116.03-111.45 116.08-192.05-0.004-3.3703-0.21538-6.6972-0.37304-10.035z"/>
<path style="fill-rule:evenodd;stroke:#000;stroke-width:1px;fill:url(#radialGradient4270)" d="m401.91 325.69c-91.618-0.50003-204.46 82.31-213.31 87.299-24.166 34.074-37.792 74.357-39.646 115.96a217.34 47.169 0 0 0 2.5898 4.6309 217.34 47.169 0 0 1 0 0.002 217.34 47.169 0 0 0 4.7578 4.5996 217.34 47.169 0 0 0 6.8516 4.4746 217.34 47.169 0 0 0 8.873 4.3027 217.34 47.169 0 0 0 10.811 4.0898 217.34 47.169 0 0 1 0.002 0 217.34 47.169 0 0 0 12.635 3.8359 217.34 47.169 0 0 1 0.002 0 217.34 47.169 0 0 0 14.336 3.543 217.34 47.169 0 0 0 15.896 3.2129 217.34 47.169 0 0 0 17.295 2.8535 217.34 47.169 0 0 0 18.52 2.4648 217.34 47.169 0 0 0 19.562 2.0508 217.34 47.169 0 0 1 0.002 0 217.34 47.169 0 0 0 20.406 1.6172 217.34 47.169 0 0 0 21.049 1.166 217.34 47.169 0 0 1 0.002 0 217.34 47.169 0 0 0 21.48 0.70507 217.34 47.169 0 0 0 21.697 0.23438 217.34 47.169 0 0 0 15.373 -0.11719 217.34 47.169 0 0 0 21.566 -0.56836 217.34 47.169 0 0 1 0.002 0 217.34 47.169 0 0 0 21.197 -1.0332 217.34 47.169 0 0 0 20.615 -1.4863 217.34 47.169 0 0 0 19.83 -1.9258 217.34 47.169 0 0 0 18.846 -2.3457 217.34 47.169 0 0 1 0.002 0 217.34 47.169 0 0 0 17.668 -2.7442 217.34 47.169 0 0 0 16.322 -3.1113 217.34 47.169 0 0 0 14.809 -3.4492 217.34 47.169 0 0 0 13.146 -3.7539 217.34 47.169 0 0 0 11.355 -4.0195 217.34 47.169 0 0 1 0.002 0 217.34 47.169 0 0 0 9.4492 -4.2461 217.34 47.169 0 0 0 7.4492 -4.4277 217.34 47.169 0 0 0 5.375 -4.5684 217.34 47.169 0 0 0 3.2461 -4.6621 217.34 47.169 0 0 0 0.51563 -2.2363c-1.8185-38.501-13.618-74.755-33.289-105.81-7.543-4.1164-16.125-9.3192-19.742-13.453-4.0756-4.6578-8.4859-16.24-11.529-25.287-28.663-28.193-65.314-48.633-106.89-57.506-1.5341-0.12244-3.1179-0.14101-4.7793-0.19922-1.4431-0.0506-2.8914-0.0799-4.3457-0.0879z"/>
</g>
</svg>
