<?xml version="1.0" encoding="UTF-8" standalone="no"?>
<!-- Created with Inkscape (http://www.inkscape.org/) -->

<svg
   xmlns:dc="http://purl.org/dc/elements/1.1/"
   xmlns:cc="http://creativecommons.org/ns#"
   xmlns:rdf="http://www.w3.org/1999/02/22-rdf-syntax-ns#"
   xmlns:svg="http://www.w3.org/2000/svg"
   xmlns="http://www.w3.org/2000/svg"
   xmlns:xlink="http://www.w3.org/1999/xlink"
   xmlns:sodipodi="http://sodipodi.sourceforge.net/DTD/sodipodi-0.dtd"
   xmlns:inkscape="http://www.inkscape.org/namespaces/inkscape"
   width="122.84715mm"
   height="114.4219mm"
   viewBox="0 0 435.28519 405.43192"
   id="svg2"
   version="1.1"
   inkscape:version="0.91 r13725"
   sodipodi:docname="drawing.svg">
  <defs
     id="defs4">
    <linearGradient
       inkscape:collect="always"
       id="linearGradient4272">
      <stop
         style="stop-color:#93bfff;stop-opacity:1"
         offset="0"
         id="stop4274" />
      <stop
         style="stop-color:#0a6eff;stop-opacity:1"
         offset="1"
         id="stop4276" />
    </linearGradient>
    <linearGradient
       inkscape:collect="always"
       id="linearGradient4264">
      <stop
         style="stop-color:#ffffff;stop-opacity:1"
         offset="0"
         id="stop4266" />
      <stop
         style="stop-color:#cdcdcd;stop-opacity:1"
         offset="1"
         id="stop4268" />
    </linearGradient>
    <radialGradient
       inkscape:collect="always"
       xlink:href="#linearGradient4264"
       id="radialGradient4270"
       cx="414.28619"
       cy="409.17105"
       fx="414.28619"
       fy="409.17105"
       r="217.27106"
       gradientTransform="matrix(1,0,0,0.57081976,0,192.79365)"
       gradientUnits="userSpaceOnUse" />
    <radialGradient
       inkscape:collect="always"
       xlink:href="#linearGradient4272"
       id="radialGradient4278"
       cx="364.28629"
       cy="488.1445"
       fx="364.28629"
       fy="488.1445"
       r="217.64258"
       gradientTransform="matrix(1.3821923,0.03311869,-0.01507146,0.62899956,-131.87036,244.48035)"
       gradientUnits="userSpaceOnUse" />
  </defs>
  <sodipodi:namedview
     id="base"
     pagecolor="#ffffff"
     bordercolor="#666666"
     borderopacity="1.0"
     inkscape:pageopacity="0.0"
     inkscape:pageshadow="2"
     inkscape:zoom="7.9195959"
     inkscape:cx="104.06762"
     inkscape:cy="385.74903"
     inkscape:document-units="px"
     inkscape:current-layer="g4183"
     showgrid="false"
     inkscape:window-width="1916"
     inkscape:window-height="1032"
     inkscape:window-x="1680"
     inkscape:window-y="22"
     inkscape:window-maximized="0"
     fit-margin-top="0"
     fit-margin-left="0"
     fit-margin-right="0"
     fit-margin-bottom="0" />
  <metadata
     id="metadata7">
    <rdf:RDF>
      <cc:Work
         rdf:about="">
        <dc:format>image/svg+xml</dc:format>
        <dc:type
           rdf:resource="http://purl.org/dc/dcmitype/StillImage" />
        <dc:title />
      </cc:Work>
    </rdf:RDF>
  </metadata>
  <g
     inkscape:groupmode="layer"
     id="layer2"
     inkscape:label="Buttom"
     transform="translate(-148.07193,-325.1911)">
    <g
       id="g4165"
       transform="matrix(0.88922233,-0.4574753,0.4574753,0.88922233,-145.17561,176.09868)">
      <g
         id="g4183"
         transform="matrix(0.99951931,0.0310024,-0.0310024,0.99951931,33.307252,-9.147648)">
        <rect
           style="fill:#ffffff;stroke:#000000;stroke-width:0.74843585;stroke-opacity:1"
           id="rect3361"
           width="41.667816"
           height="12.373395"
           x="255.44283"
           y="339.06873" />
        <rect
           style="opacity:0.81800022;fill:none;fill-opacity:1;stroke:#000000;stroke-width:0.61386567;stroke-opacity:1"
           id="button-led"
           width="57.964832"
           height="21.599339"
           x="247.29431"
           y="351.12329"
           inkscape:label="#rect4163" />
      </g>
    </g>
  </g>
  <g
     inkscape:label="Layer 1"
     inkscape:groupmode="layer"
     id="layer1"
     transform="translate(-148.07193,-325.1911)">
    <path
       style="opacity:0.67099998;fill:url(#radialGradient4278);fill-opacity:1;fill-rule:evenodd;stroke:#000000;stroke-width:1px;stroke-linecap:butt;stroke-linejoin:miter;stroke-opacity:1"
       d="m 582.48438,528.04102 a 217.33957,47.169159 0 0 1 -0.51563,2.23632 217.33957,47.169159 0 0 1 -3.24609,4.66211 217.33957,47.169159 0 0 1 -5.375,4.56836 217.33957,47.169159 0 0 1 -7.44922,4.42774 217.33957,47.169159 0 0 1 -9.44922,4.24609 217.33957,47.169159 0 0 1 -0.002,0 217.33957,47.169159 0 0 1 -11.35547,4.01953 217.33957,47.169159 0 0 1 -13.14649,3.75391 217.33957,47.169159 0 0 1 -14.80859,3.44922 217.33957,47.169159 0 0 1 -16.32227,3.11132 217.33957,47.169159 0 0 1 -17.66797,2.74415 217.33957,47.169159 0 0 1 -0.002,0 217.33957,47.169159 0 0 1 -18.8457,2.3457 217.33957,47.169159 0 0 1 -19.83008,1.92578 217.33957,47.169159 0 0 1 -20.61523,1.48633 217.33957,47.169159 0 0 1 -21.19727,1.0332 217.33957,47.169159 0 0 1 -0.002,0 217.33957,47.169159 0 0 1 -21.56641,0.56836 217.33957,47.169159 0 0 1 -15.37305,0.11719 217.33957,47.169159 0 0 1 -21.69726,-0.23438 217.33957,47.169159 0 0 1 -21.48047,-0.70507 217.33957,47.169159 0 0 1 -0.002,0 217.33957,47.169159 0 0 1 -21.04883,-1.16602 217.33957,47.169159 0 0 1 -20.40625,-1.61719 217.33957,47.169159 0 0 1 -0.002,0 217.33957,47.169159 0 0 1 -19.5625,-2.05078 217.33957,47.169159 0 0 1 -18.51953,-2.46484 217.33957,47.169159 0 0 1 -17.29492,-2.85352 217.33957,47.169159 0 0 1 -15.89648,-3.21289 217.33957,47.169159 0 0 1 -14.33594,-3.54297 217.33957,47.169159 0 0 1 -0.002,0 217.33957,47.169159 0 0 1 -12.63477,-3.83594 217.33957,47.169159 0 0 1 -0.002,0 217.33957,47.169159 0 0 1 -10.81055,-4.08984 217.33957,47.169159 0 0 1 -8.87305,-4.30273 217.33957,47.169159 0 0 1 -6.85156,-4.47461 217.33957,47.169159 0 0 1 -4.75781,-4.59961 217.33957,47.169159 0 0 1 0,-0.002 217.33957,47.169159 0 0 1 -2.58984,-4.63086 c -0.13555,3.04055 -0.36753,6.07011 -0.375,9.12305 0.0603,80.60525 44.76547,154.54459 116.11523,192.04688 l 202.08789,0 c 71.3369,-37.51126 116.02819,-111.44883 116.08203,-192.04688 -0.004,-3.37029 -0.21538,-6.69716 -0.37304,-10.03515 z"
       id="path4254"
       inkscape:connector-curvature="0" />
    <path
       style="opacity:1;fill:url(#radialGradient4270);fill-opacity:1;fill-rule:evenodd;stroke:#000000;stroke-width:1px;stroke-linecap:butt;stroke-linejoin:miter;stroke-opacity:1"
       d="m 401.90625,325.69336 c -91.61798,-0.50003 -204.45866,82.31039 -213.3125,87.29883 -24.16555,34.07396 -37.79187,74.35743 -39.64648,115.96093 a 217.33957,47.169159 0 0 0 2.58984,4.63086 217.33957,47.169159 0 0 1 0,0.002 217.33957,47.169159 0 0 0 4.75781,4.59961 217.33957,47.169159 0 0 0 6.85156,4.47461 217.33957,47.169159 0 0 0 8.87305,4.30273 217.33957,47.169159 0 0 0 10.81055,4.08984 217.33957,47.169159 0 0 1 0.002,0 217.33957,47.169159 0 0 0 12.63477,3.83594 217.33957,47.169159 0 0 1 0.002,0 217.33957,47.169159 0 0 0 14.33594,3.54297 217.33957,47.169159 0 0 0 15.89648,3.21289 217.33957,47.169159 0 0 0 17.29492,2.85352 217.33957,47.169159 0 0 0 18.51953,2.46484 217.33957,47.169159 0 0 0 19.5625,2.05078 217.33957,47.169159 0 0 1 0.002,0 217.33957,47.169159 0 0 0 20.40625,1.61719 217.33957,47.169159 0 0 0 21.04883,1.16602 217.33957,47.169159 0 0 1 0.002,0 217.33957,47.169159 0 0 0 21.48047,0.70507 217.33957,47.169159 0 0 0 21.69726,0.23438 217.33957,47.169159 0 0 0 15.37305,-0.11719 217.33957,47.169159 0 0 0 21.56641,-0.56836 217.33957,47.169159 0 0 1 0.002,0 217.33957,47.169159 0 0 0 21.19727,-1.0332 217.33957,47.169159 0 0 0 20.61523,-1.48633 217.33957,47.169159 0 0 0 19.83008,-1.92578 217.33957,47.169159 0 0 0 18.8457,-2.3457 217.33957,47.169159 0 0 1 0.002,0 217.33957,47.169159 0 0 0 17.66797,-2.74415 217.33957,47.169159 0 0 0 16.32227,-3.11132 217.33957,47.169159 0 0 0 14.80859,-3.44922 217.33957,47.169159 0 0 0 13.14649,-3.75391 217.33957,47.169159 0 0 0 11.35547,-4.01953 217.33957,47.169159 0 0 1 0.002,0 217.33957,47.169159 0 0 0 9.44922,-4.24609 217.33957,47.169159 0 0 0 7.44922,-4.42774 217.33957,47.169159 0 0 0 5.375,-4.56836 217.33957,47.169159 0 0 0 3.24609,-4.66211 217.33957,47.169159 0 0 0 0.51563,-2.23632 c -1.81854,-38.50055 -13.61787,-74.75539 -33.28907,-105.81446 -7.54302,-4.11641 -16.12501,-9.31921 -19.74219,-13.45312 -4.07558,-4.65782 -8.48587,-16.24041 -11.52929,-25.28711 -28.66326,-28.19313 -65.3142,-48.63331 -106.89258,-57.50586 -1.53409,-0.12244 -3.11794,-0.14101 -4.7793,-0.19922 -1.44306,-0.0506 -2.89145,-0.0799 -4.3457,-0.0879 z"
       id="path3336"
       inkscape:connector-curvature="0" />
  </g>
</svg>
